<?xml version="1.0" encoding="utf-8"?>
<!-- Generator: Adobe Illustrator 26.0.1, SVG Export Plug-In . SVG Version: 6.00 Build 0)  -->
<svg version="1.1" id="Layer_1" xmlns="http://www.w3.org/2000/svg" xmlns:xlink="http://www.w3.org/1999/xlink" x="0px" y="0px"
	 viewBox="0 0 1682.44 459.27" style="enable-background:new 0 0 1682.44 459.27;" xml:space="preserve">
<g>
	<g id="XMLID_00000106127333906604045930000011008633962445546133_">
		<g>
			<path d="M1682.19,363.98c0,12.27-3.3,23.42-9.89,33.49c-6.59,10.06-16.72,18.05-30.36,23.95c-13.65,5.9-30.43,8.85-50.32,8.85
				c-18.05,0.01-35.35-2.88-51.88-8.67c-16.54-5.78-29.32-13.42-38.35-22.9l10.06-19.78c8.79,8.8,20.47,15.91,35.05,21.34
				c14.57,5.44,29.61,8.16,45.11,8.16c21.74,0,38.05-3.99,48.93-11.97c10.87-7.98,16.31-18.33,16.31-31.06
				c0-9.72-2.95-17.47-8.85-23.25s-13.13-10.24-21.69-13.36c-8.56-3.12-20.47-6.53-35.74-10.24c-18.28-4.62-32.85-9.08-43.73-13.36
				s-20.19-10.81-27.94-19.61c-7.75-8.79-11.62-20.7-11.62-35.74c0-12.26,3.24-23.42,9.72-33.49c6.47-10.06,16.42-18.1,29.85-24.12
				c13.41-6.01,30.07-9.02,49.97-9.02c13.88,0,27.47,1.91,40.78,5.73c13.3,3.82,24.81,9.08,34.53,15.79l-8.68,20.47
				c-10.18-6.71-21.05-11.74-32.62-15.1c-11.57-3.35-22.9-5.03-34.01-5.03c-21.29,0-37.31,4.11-48.06,12.32
				c-10.76,8.21-16.14,18.8-16.14,31.75c0,9.72,2.95,17.52,8.85,23.42c5.9,5.9,13.3,10.41,22.21,13.53
				c8.9,3.12,20.88,6.54,35.92,10.24c17.81,4.4,32.21,8.74,43.2,13.01c10.99,4.28,20.3,10.76,27.94,19.43
				C1678.37,337.44,1682.19,349.18,1682.19,363.98z"/>
			<path d="M1439.28,207.49c17.58,14.81,26.37,35.17,26.37,61.08s-8.79,46.21-26.37,60.9c-17.58,14.69-41.88,22.04-72.88,22.04
				h-65.24v76.69h-25.68V185.28h90.92C1397.4,185.28,1421.69,192.68,1439.28,207.49z M1439.97,268.57
				c0-19.66-6.37-34.76-19.09-45.29c-12.73-10.52-31.12-15.79-55.18-15.79h-64.55v121.46h64.55c24.07,0,42.46-5.26,55.18-15.79
				C1433.6,302.64,1439.97,287.77,1439.97,268.57z"/>
			<path d="M1220.65,218.58l-16.31,16.31c-18.97-19.2-42.92-28.8-71.84-28.8c-19.21,0-36.67,4.4-52.4,13.19
				c-15.74,8.8-28.06,20.82-36.96,36.09c-8.91,15.27-13.36,32.39-13.36,51.36s4.45,36.09,13.36,51.36
				c8.9,15.27,21.22,27.3,36.96,36.09c15.73,8.79,33.19,13.19,52.4,13.19c29.15,0,53.1-9.72,71.84-29.15l16.31,16.31
				c-10.64,11.57-23.66,20.42-39.04,26.55c-15.39,6.13-32.1,9.2-50.15,9.2c-24.06,0-45.75-5.32-65.06-15.97
				c-19.32-10.64-34.48-25.39-45.46-44.25c-10.99-18.85-16.48-39.96-16.48-63.33c0-23.36,5.49-44.47,16.48-63.33
				c10.99-18.85,26.2-33.6,45.63-44.25c19.43-10.64,41.18-15.96,65.24-15.96c18.05,0,34.7,3.01,49.97,9.02
				C1197.05,198.23,1210,207.02,1220.65,218.58z"/>
			<polygon points="930.4,184.46 881.66,428.14 835.37,428.14 744.51,275.67 713.87,428.14 658.17,428.14 706.91,184.46 
				753.56,184.46 844.41,337.29 874.7,184.46 			"/>
			<polygon points="805.97,0.25 762.91,54.19 757.29,82.15 742.2,82.15 747.93,53.14 726.52,0.25 741.62,0.25 757.76,40.27 
				790.05,0.25 			"/>
			<path d="M715.76,18.62c0,5.07-1.33,9.42-3.98,13.05c-2.65,3.63-6.2,6.34-10.64,8.13c3.51,1.33,6.24,3.39,8.19,6.2
				c1.94,2.81,2.92,6.28,2.92,10.41c0,8.43-3.28,14.83-9.83,19.19c-6.55,4.37-15.36,6.55-26.44,6.55h-41.07l16.38-81.9h37.79
				c8.51,0,15.08,1.58,19.72,4.74S715.76,12.7,715.76,18.62z M694.82,31.32c3.35-2.3,5.03-5.68,5.03-10.12
				c0-6.01-4.72-9.01-14.16-9.01h-21.64l-4.57,22.58h21.65C686.9,34.77,691.46,33.62,694.82,31.32z M697.04,56.41
				c0-3.51-1.23-6.02-3.68-7.54c-2.46-1.52-6.15-2.28-11.06-2.28h-25.16l-4.68,23.63h24.57c6.4,0,11.33-1.17,14.8-3.51
				C695.3,64.37,697.04,60.94,697.04,56.41z"/>
			<path d="M637.08,143.72c17.39,0.26,30.91,14.44,30.72,32.15c-0.21,17.48-14.25,31.04-31.98,30.86
				c-17.55-0.16-31.15-14.07-31.06-31.76C604.89,157.05,618.97,143.46,637.08,143.72z"/>
			<path d="M611.12,224.74c16.18,21.28,25.78,47.84,25.78,76.63c0,70-56.75,126.74-126.74,126.74c-28.78,0-55.34-9.59-76.62-25.79
				l34.26-34.26c12.25,7.78,26.78,12.29,42.36,12.29c43.61,0,78.99-35.35,78.99-78.98c0-15.59-4.52-30.12-12.3-42.36L611.12,224.74z
				"/>
			<path d="M590.52,16.17c3.15,5.07,4.73,11.03,4.73,17.9c0,9.59-2.12,18.02-6.37,25.27s-10.24,12.87-17.96,16.85
				c-7.72,3.98-16.62,5.96-26.68,5.96h-38.26l16.38-81.9h33.11c8.19,0,15.29,1.39,21.3,4.16C582.77,7.18,587.36,11.1,590.52,16.17z
				 M575.66,52.61c2.84-5.18,4.27-11.05,4.27-17.61c0-6.86-2.23-12.22-6.67-16.08c-4.45-3.87-10.92-5.8-19.42-5.8H535l-11.23,56.16
				h20.94c7.17,0,13.41-1.48,18.72-4.44C568.73,61.88,572.81,57.8,575.66,52.61z"/>
			<path d="M585.44,199.41l-34.37,34.37c-11.93-7.23-25.94-11.4-40.91-11.4c-43.62,0-78.99,35.38-78.99,78.99
				c0,14.96,4.16,28.97,11.42,40.9l-34.38,34.38c-15.59-21.04-24.8-47.1-24.8-75.28c0-69.99,56.75-126.74,126.75-126.74
				C538.35,174.63,564.39,183.84,585.44,199.41z"/>
			<polygon points="503.76,0.25 501.19,13.01 456.49,13.01 452.28,34.3 491.94,34.3 489.49,46.82 449.71,46.82 445.26,69.4 
				491.59,69.4 489.02,82.15 427.59,82.15 443.97,0.25 			"/>
			<path d="M415.49,16.17c3.15,5.07,4.73,11.03,4.73,17.9c0,9.59-2.12,18.02-6.37,25.27c-4.26,7.25-10.24,12.87-17.96,16.85
				c-7.72,3.98-16.62,5.96-26.68,5.96h-38.26l16.38-81.9h33.11c8.19,0,15.29,1.39,21.3,4.16C407.74,7.18,412.33,11.1,415.49,16.17z
				 M400.63,52.61c2.84-5.18,4.27-11.05,4.27-17.61c0-6.86-2.23-12.22-6.67-16.08c-4.45-3.87-10.92-5.8-19.42-5.8h-18.84
				l-11.23,56.16h20.94c7.17,0,13.41-1.48,18.72-4.44C393.7,61.88,397.78,57.8,400.63,52.61z"/>
			<path d="M384.31,396c17.59,0.11,31.28,13.96,31.22,31.61c-0.06,17.65-13.82,31.39-31.44,31.41c-17.88,0.01-31.73-14.02-31.6-32
				C352.67,409.5,366.63,395.9,384.31,396z"/>
			<path d="M369.24,218.51l-40.73,33.42c-13-19.03-32.6-28.55-58.82-28.55c-17.88,0-33.66,4.19-47.34,12.53
				c-13.7,8.36-24.32,19.74-31.85,34.12c-7.55,14.39-11.32,30.4-11.32,48.03c0,18.81,5.98,33.72,17.92,44.74
				c11.96,11.02,28.72,16.53,50.3,16.53c25.77,0,47.34-9.4,64.75-28.21l33.42,34.12c-24.14,28.08-58.48,42.12-103.05,42.12
				c-24.37,0-45.66-4.41-63.88-13.22c-18.22-8.83-32.2-21.24-41.94-37.25c-9.75-16.01-14.62-34.47-14.62-55.35
				c0-27.62,6.32-52.51,18.98-74.67c12.64-22.17,30.45-39.62,53.43-52.39c22.98-12.77,49.31-19.15,79.01-19.15
				c21.81,0,41.08,3.71,57.79,11.13C348.01,193.93,360.66,204.59,369.24,218.51z"/>
			<polygon points="325.22,0.25 308.84,82.15 296.32,82.15 262.74,24.82 251.28,82.15 236.18,82.15 252.56,0.25 265.08,0.25 
				298.78,57.58 310.13,0.25 			"/>
			<path d="M231.15,0.25l-9.36,46.92c-2.42,12.01-7.02,21.04-13.8,27.09c-6.79,6.04-15.68,9.06-26.68,9.06
				c-9.98,0-17.8-2.49-23.46-7.48c-5.65-4.99-8.48-11.86-8.48-20.6c0-2.57,0.31-5.49,0.94-8.77l9.24-46.22h15.21l-9.24,45.99
				c-0.55,3.12-0.82,5.53-0.82,7.25c0,5.46,1.56,9.58,4.68,12.34c3.12,2.77,7.6,4.16,13.45,4.16c6.55,0,11.8-1.91,15.74-5.74
				c3.94-3.82,6.76-9.86,8.48-18.13l9.13-45.87H231.15z"/>
			<polygon points="145.51,0.25 142.94,13.01 98.36,13.01 93.33,37.93 132.99,37.93 130.42,50.8 90.87,50.8 84.55,82.15 
				69.34,82.15 85.72,0.25 			"/>
			<polygon points="105.72,184.46 56.99,428.14 0.25,428.14 48.99,184.46 			"/>
		</g>
		<g>
		</g>
	</g>
</g>
</svg>
