<?xml version="1.0" encoding="utf-8"?>
<!-- Generator: Adobe Illustrator 26.0.1, SVG Export Plug-In . SVG Version: 6.00 Build 0)  -->
<svg version="1.1" id="Layer_1" xmlns="http://www.w3.org/2000/svg" xmlns:xlink="http://www.w3.org/1999/xlink" x="0px" y="0px"
	 viewBox="0 0 1682.19 315.8" style="enable-background:new 0 0 1682.19 315.8;" xml:space="preserve">
<style type="text/css">
	.st0{fill:#FFFFFF;}
</style>
<g>
	<path class="st0" d="M1066.4,270.84c-19.32-10.64-34.48-25.39-45.46-44.25c-10.99-18.85-16.48-39.96-16.48-63.33
		c0-23.36,5.49-44.47,16.48-63.33c10.99-18.85,26.2-33.6,45.63-44.25c19.43-10.64,41.18-15.96,65.24-15.96
		c18.05,0,34.7,3.01,49.97,9.02c15.27,6.02,28.22,14.81,38.87,26.37l-16.31,16.31c-18.97-19.2-42.92-28.8-71.84-28.8
		c-19.21,0-36.67,4.4-52.4,13.19c-15.74,8.8-28.06,20.82-36.96,36.09c-8.91,15.27-13.36,32.39-13.36,51.36
		c0,18.97,4.45,36.09,13.36,51.36c8.9,15.27,21.22,27.3,36.96,36.09c15.73,8.79,33.19,13.19,52.4,13.19
		c29.15,0,53.1-9.72,71.84-29.15l16.31,16.31c-10.64,11.57-23.66,20.42-39.04,26.55c-15.39,6.13-32.1,9.2-50.15,9.2
		C1107.4,286.81,1085.71,281.49,1066.4,270.84z"/>
	<path class="st0" d="M1439.28,64.02c17.58,14.81,26.37,35.17,26.37,61.08c0,25.91-8.79,46.21-26.37,60.9
		c-17.58,14.69-41.88,22.04-72.88,22.04h-65.24v76.69h-25.68V41.81h90.92C1397.4,41.81,1421.69,49.21,1439.28,64.02z
		 M1420.88,169.69c12.72-10.52,19.09-25.39,19.09-44.59c0-19.66-6.37-34.76-19.09-45.29c-12.73-10.52-31.12-15.79-55.18-15.79
		h-64.55v121.46h64.55C1389.77,185.48,1408.16,180.22,1420.88,169.69z"/>
	<path class="st0" d="M1539.74,278.13c-16.54-5.78-29.32-13.42-38.35-22.9l10.06-19.78c8.79,8.8,20.47,15.91,35.05,21.34
		c14.57,5.44,29.61,8.16,45.11,8.16c21.74,0,38.05-3.99,48.93-11.97c10.87-7.98,16.31-18.33,16.31-31.06
		c0-9.72-2.95-17.47-8.85-23.25c-5.9-5.78-13.13-10.24-21.69-13.36c-8.56-3.12-20.47-6.53-35.74-10.24
		c-18.28-4.62-32.85-9.08-43.73-13.36c-10.88-4.28-20.19-10.81-27.94-19.61c-7.75-8.79-11.62-20.7-11.62-35.74
		c0-12.26,3.24-23.42,9.72-33.49c6.47-10.06,16.42-18.1,29.85-24.12c13.41-6.01,30.07-9.02,49.97-9.02
		c13.88,0,27.47,1.91,40.78,5.73c13.3,3.82,24.81,9.08,34.53,15.79l-8.68,20.47c-10.18-6.71-21.05-11.74-32.62-15.1
		c-11.57-3.35-22.9-5.03-34.01-5.03c-21.29,0-37.31,4.11-48.06,12.32c-10.76,8.21-16.14,18.8-16.14,31.75
		c0,9.72,2.95,17.52,8.85,23.42c5.9,5.9,13.3,10.41,22.21,13.53c8.9,3.12,20.88,6.54,35.92,10.24c17.81,4.4,32.21,8.74,43.2,13.01
		c10.99,4.28,20.3,10.76,27.94,19.43c7.63,8.68,11.45,20.42,11.45,35.22c0,12.27-3.3,23.42-9.89,33.49
		c-6.59,10.06-16.72,18.05-30.36,23.95c-13.65,5.9-30.43,8.85-50.32,8.85C1573.57,286.81,1556.27,283.92,1539.74,278.13z"/>
</g>
<g>
	<g id="XMLID_00000111150808696208616710000017084975368722360758_">
		<g>
			<polygon class="st0" points="930.4,40.99 881.66,284.67 835.37,284.67 744.51,132.2 713.87,284.67 658.17,284.67 706.91,40.99 
				753.56,40.99 844.41,193.82 874.7,40.99 			"/>
			<path class="st0" d="M637.08,0.25c17.39,0.26,30.91,14.44,30.72,32.15c-0.21,17.48-14.25,31.04-31.98,30.86
				c-17.55-0.16-31.15-14.07-31.06-31.76C604.89,13.58,618.97-0.01,637.08,0.25z"/>
			<path class="st0" d="M611.12,81.27c16.18,21.28,25.78,47.84,25.78,76.63c0,70-56.75,126.74-126.74,126.74
				c-28.78,0-55.34-9.59-76.62-25.79l34.26-34.26c12.25,7.78,26.78,12.29,42.36,12.29c43.61,0,78.99-35.35,78.99-78.98
				c0-15.59-4.52-30.12-12.3-42.36L611.12,81.27z"/>
			<path class="st0" d="M585.44,55.94l-34.37,34.37c-11.93-7.23-25.94-11.4-40.91-11.4c-43.62,0-78.99,35.38-78.99,78.99
				c0,14.96,4.16,28.97,11.42,40.9l-34.38,34.38c-15.59-21.04-24.8-47.1-24.8-75.28c0-69.99,56.75-126.74,126.75-126.74
				C538.35,31.16,564.39,40.37,585.44,55.94z"/>
			<path class="st0" d="M384.31,252.53c17.59,0.11,31.28,13.96,31.22,31.61s-13.82,31.39-31.44,31.41
				c-17.88,0.01-31.73-14.02-31.6-32C352.67,266.03,366.63,252.43,384.31,252.53z"/>
			<path class="st0" d="M369.24,75.04l-40.73,33.42c-13-19.03-32.6-28.55-58.82-28.55c-17.88,0-33.66,4.19-47.34,12.53
				c-13.7,8.36-24.32,19.74-31.85,34.12c-7.55,14.39-11.32,30.4-11.32,48.03c0,18.81,5.98,33.72,17.92,44.74
				c11.96,11.02,28.72,16.53,50.3,16.53c25.77,0,47.34-9.4,64.75-28.21l33.42,34.12c-24.14,28.08-58.48,42.12-103.05,42.12
				c-24.37,0-45.66-4.41-63.88-13.22c-18.22-8.83-32.2-21.24-41.94-37.25c-9.75-16.01-14.62-34.47-14.62-55.35
				c0-27.62,6.32-52.51,18.98-74.67c12.64-22.17,30.45-39.62,53.43-52.39s49.31-19.15,79.01-19.15c21.81,0,41.08,3.71,57.79,11.13
				C348.01,50.46,360.66,61.12,369.24,75.04z"/>
			<polygon class="st0" points="105.72,40.99 56.99,284.67 0.25,284.67 48.99,40.99 			"/>
		</g>
		<g>
		</g>
	</g>
</g>
</svg>
