<?xml version="1.0" encoding="utf-8"?>
<!-- Generator: Adobe Illustrator 23.0.1, SVG Export Plug-In . SVG Version: 6.00 Build 0)  -->
<svg version="1.1" id="Capa_1" xmlns="http://www.w3.org/2000/svg" xmlns:xlink="http://www.w3.org/1999/xlink" x="0px" y="0px"
	 viewBox="0 0 140 27" style="enable-background:new 0 0 140 27;" xml:space="preserve">
<style type="text/css">
	.st0{fill:#FFFFFF;}
	.st1{fill:#34B8BB;}
	.st2{opacity:0.6;}
	.st3{fill:url(#SVGID_1_);}
	.st4{fill:url(#SVGID_2_);}
	.st5{fill:url(#SVGID_3_);}
	.st6{fill:url(#SVGID_4_);}
	.st7{fill:url(#SVGID_5_);}
	.st8{fill:url(#SVGID_6_);}
</style>
<g>
	<g>
		<polygon class="st0" points="81.3,3.8 77.3,24 73.4,24 65.9,11.4 63.3,24 58.7,24 62.8,3.8 66.6,3.8 74.2,16.5 76.7,3.8 		"/>
		<g>
			<path class="st1" d="M57,0.4c1.5,0,2.6,1.2,2.6,2.7s-1.2,2.6-2.7,2.6s-2.6-1.2-2.6-2.6C54.3,1.5,55.5,0.4,57,0.4z"/>
			<path class="st1" d="M54.8,7.1c1.3,1.8,2.1,4,2.1,6.4C57,19.3,52.3,24,46.4,24c-2.4,0-4.6-0.8-6.4-2.1l2.8-2.8c1,0.6,2.2,1,3.5,1
				c3.6,0,6.5-2.9,6.5-6.5c0-1.3-0.4-2.5-1-3.5L54.8,7.1L54.8,7.1L54.8,7.1z"/>
			<path class="st1" d="M52.7,5l-2.9,2.9c-1-0.6-2.1-0.9-3.4-0.9c-3.6,0-6.5,2.9-6.5,6.5c0,1.2,0.4,2.4,0.9,3.4L38,19.7
				c-1.3-1.8-2.1-3.9-2.1-6.2C35.9,7.7,40.6,3,46.4,3C48.8,3,50.9,3.7,52.7,5L52.7,5L52.7,5z"/>
			<path class="st1" d="M36,21.4c1.5,0,2.6,1.2,2.6,2.6c0,1.5-1.2,2.6-2.6,2.6c-1.5,0-2.6-1.2-2.6-2.7C33.4,22.5,34.5,21.3,36,21.4
				L36,21.4L36,21.4z"/>
		</g>
		<g class="st2">
			
				<radialGradient id="SVGID_1_" cx="36.9321" cy="3.5883" r="38.0791" gradientTransform="matrix(1 0 0 -1 0 28)" gradientUnits="userSpaceOnUse">
				<stop  offset="0" style="stop-color:#5CFFE4"/>
				<stop  offset="7.944351e-02" style="stop-color:#5CFFE4;stop-opacity:0.9206"/>
				<stop  offset="1" style="stop-color:#5CFFE4;stop-opacity:0"/>
			</radialGradient>
			<path class="st3" d="M54.8,7.1c1.3,1.8,2.1,4,2.1,6.4C57,19.3,52.3,24,46.4,24c-2.4,0-4.6-0.8-6.4-2.1l2.8-2.8c1,0.6,2.2,1,3.5,1
				c3.6,0,6.5-2.9,6.5-6.5c0-1.3-0.4-2.5-1-3.5L54.8,7.1L54.8,7.1L54.8,7.1z"/>
			
				<radialGradient id="SVGID_2_" cx="36.9321" cy="3.5883" r="38.0791" gradientTransform="matrix(1 0 0 -1 0 28)" gradientUnits="userSpaceOnUse">
				<stop  offset="0" style="stop-color:#5CFFE4"/>
				<stop  offset="7.944351e-02" style="stop-color:#5CFFE4;stop-opacity:0.9206"/>
				<stop  offset="1" style="stop-color:#5CFFE4;stop-opacity:0"/>
			</radialGradient>
			<path class="st4" d="M52.7,5l-2.9,2.9c-1-0.6-2.1-0.9-3.4-0.9c-3.6,0-6.5,2.9-6.5,6.5c0,1.2,0.4,2.4,0.9,3.4L38,19.7
				c-1.3-1.8-2.1-3.9-2.1-6.2C35.9,7.7,40.6,3,46.4,3C48.8,3,50.9,3.7,52.7,5L52.7,5L52.7,5z"/>
			
				<radialGradient id="SVGID_3_" cx="36.9321" cy="3.5883" r="38.0791" gradientTransform="matrix(1 0 0 -1 0 28)" gradientUnits="userSpaceOnUse">
				<stop  offset="0" style="stop-color:#5CFFE4"/>
				<stop  offset="7.944351e-02" style="stop-color:#5CFFE4;stop-opacity:0.9206"/>
				<stop  offset="1" style="stop-color:#5CFFE4;stop-opacity:0"/>
			</radialGradient>
			<path class="st5" d="M36,21.4c1.5,0,2.6,1.2,2.6,2.6c0,1.5-1.2,2.6-2.6,2.6c-1.5,0-2.6-1.2-2.6-2.7C33.4,22.5,34.5,21.3,36,21.4
				L36,21.4L36,21.4z"/>
		</g>
		<path class="st0" d="M34.8,6.6l-3.4,2.8C30.3,7.8,28.7,7,26.5,7c-1.5,0-2.8,0.4-3.9,1c-1.1,0.7-2,1.6-2.6,2.8s-0.9,2.5-0.9,4
			c0,1.6,0.5,2.8,1.5,3.7s2.4,1.4,4.2,1.4c2.1,0,3.9-0.8,5.4-2.3l2.8,2.8c-2,2.3-4.8,3.5-8.6,3.5c-2,0-3.8-0.4-5.3-1.1
			c-1.5-0.7-2.7-1.8-3.5-3.1c-0.8-1.3-1.2-2.9-1.2-4.6c0-2.3,0.5-4.4,1.6-6.2c1-1.8,2.5-3.3,4.4-4.3S24.5,3,27,3
			c1.8,0,3.4,0.3,4.8,0.9C33,4.6,34,5.5,34.8,6.6L34.8,6.6L34.8,6.6z"/>
		<polygon class="st0" points="12.9,3.8 8.8,24 4.1,24 8.2,3.8 		"/>
	</g>
	<g>
		<path class="st1" d="M119.4,5.9L119.4,5.9C118,4.6,116,4,113.5,4H94.1c-1.9,0-3.7,0.4-5.3,1.3c-1.6,0.9-2.8,2.1-3.7,3.6
			c-0.9,1.5-1.3,3.3-1.3,5.2s0.5,3.6,1.3,5.2c0.9,1.5,2.1,2.7,3.7,3.6s3.3,1.3,5.3,1.3c1.5,0,2.8-0.3,4.1-0.7
			c1.3-0.5,2.3-1.2,3.2-2.2c0.1-0.1,0.1-0.2,0-0.3l-1.3-1.3c0,0-0.1-0.1-0.2-0.1s-0.1,0-0.2,0.1c-1.4,1.5-3.3,2.3-5.6,2.3
			c-1.5,0-2.9-0.3-4.1-1s-2.2-1.6-2.9-2.8c-0.7-1.2-1-2.5-1-4s0.3-2.8,1-4s1.6-2.1,2.9-2.8s2.6-1.1,4.1-1.1h19.3
			c1.9,0,3.3,0.4,4.3,1.2s1.4,2,1.4,3.5s-0.5,2.6-1.4,3.4c-1,0.8-2.4,1.2-4.3,1.2h-5.1l0,0c-1.3,0-2.3,1-2.3,2.3v5.9
			c0,0.1,0.1,0.2,0.2,0.2h2c0.1,0,0.2-0.1,0.2-0.2v-5c0-0.5,0.4-1,1-1h4c2.5,0,4.5-0.6,5.9-1.8s2.2-2.9,2.2-5.1
			C121.6,8.8,120.9,7.1,119.4,5.9z"/>
		<path class="st1" d="M132.2,15.7L132.2,15.7c-0.6-0.7-1.4-1.3-2.3-1.6c-0.9-0.3-2-0.7-3.5-1c-1.2-0.3-2.1-0.6-2.8-0.8
			c-0.1,0-0.1,0-0.2,0s-0.1,0.1-0.1,0.1c-0.1,0.6-0.3,1.2-0.6,1.7c0,0.1,0,0.1,0,0.2c0,0.1,0.1,0.1,0.1,0.1c0.8,0.3,1.7,0.5,2.8,0.8
			c1.2,0.3,2.2,0.6,2.8,0.8c0.6,0.2,1.2,0.6,1.7,1c0.4,0.4,0.6,1,0.6,1.7c0,0.9-0.4,1.7-1.2,2.3c-0.8,0.6-2.1,0.9-3.8,0.9
			c-1.2,0-2.4-0.2-3.5-0.6s-2-1-2.7-1.7c0,0-0.1-0.1-0.2-0.1s-0.1,0.1-0.2,0.1l-0.8,1.6c0,0.1,0,0.2,0,0.2c0.7,0.8,1.8,1.4,3.1,1.9
			c1.3,0.5,2.7,0.7,4.2,0.7c1.6,0,3-0.2,4.1-0.7c1.1-0.5,2-1.2,2.5-2s0.8-1.8,0.8-2.8C133.2,17.4,132.8,16.4,132.2,15.7z"/>
		<path class="st1" d="M122.4,6.9L122.4,6.9c0.2,0.1,0.2,0.1,0.3,0.1c0.8-0.5,2-0.8,3.5-0.8c0.9,0,1.8,0.1,2.6,0.4
			c0.9,0.3,1.8,0.7,2.5,1.2h0.1c0,0,0,0,0.1,0s0.1-0.1,0.1-0.1l0.7-1.6c0-0.1,0-0.2-0.1-0.3c-0.8-0.5-1.7-1-2.8-1.3S127.2,4,126.1,4
			c-1.6,0-3,0.2-4.1,0.7c-0.3,0.1-0.5,0.3-0.8,0.4c-0.1,0-0.1,0.1-0.1,0.2s0,0.1,0.1,0.2C121.7,5.9,122,6.4,122.4,6.9z"/>
	</g>
	<g>
		<g>
			<g>
				
					<radialGradient id="SVGID_4_" cx="126.297" cy="19.469" r="81.1777" gradientTransform="matrix(1 0 0 -1 0 28)" gradientUnits="userSpaceOnUse">
					<stop  offset="0" style="stop-color:#5CFFE4"/>
					<stop  offset="7.944351e-02" style="stop-color:#5CFFE4;stop-opacity:0.9206"/>
					<stop  offset="1" style="stop-color:#5CFFE4;stop-opacity:0"/>
				</radialGradient>
				<path class="st6" d="M119.4,5.9L119.4,5.9C118,4.6,116,4,113.5,4H94.1c-1.9,0-3.7,0.4-5.3,1.3c-1.6,0.9-2.8,2.1-3.7,3.6
					c-0.9,1.5-1.3,3.3-1.3,5.2s0.5,3.6,1.3,5.2c0.9,1.5,2.1,2.7,3.7,3.6s3.3,1.3,5.3,1.3c1.5,0,2.8-0.3,4.1-0.7
					c1.3-0.5,2.3-1.2,3.2-2.2c0.1-0.1,0.1-0.2,0-0.3l-1.3-1.3c0,0-0.1-0.1-0.2-0.1s-0.1,0-0.2,0.1c-1.4,1.5-3.3,2.3-5.6,2.3
					c-1.5,0-2.9-0.3-4.1-1s-2.2-1.6-2.9-2.8c-0.7-1.2-1-2.5-1-4s0.3-2.8,1-4s1.6-2.1,2.9-2.8s2.6-1.1,4.1-1.1h19.3
					c1.9,0,3.3,0.4,4.3,1.2s1.4,2,1.4,3.5s-0.5,2.6-1.4,3.4c-1,0.8-2.4,1.2-4.3,1.2h-5.1l0,0c-1.3,0-2.3,1-2.3,2.3v5.9
					c0,0.1,0.1,0.2,0.2,0.2h2c0.1,0,0.2-0.1,0.2-0.2v-5c0-0.5,0.4-1,1-1h4c2.5,0,4.5-0.6,5.9-1.8s2.2-2.9,2.2-5.1
					C121.6,8.8,120.9,7.1,119.4,5.9z"/>
			</g>
			<g>
				
					<radialGradient id="SVGID_5_" cx="126.297" cy="19.469" r="81.1777" gradientTransform="matrix(1 0 0 -1 0 28)" gradientUnits="userSpaceOnUse">
					<stop  offset="0" style="stop-color:#5CFFE4"/>
					<stop  offset="7.944351e-02" style="stop-color:#5CFFE4;stop-opacity:0.9206"/>
					<stop  offset="1" style="stop-color:#5CFFE4;stop-opacity:0"/>
				</radialGradient>
				<path class="st7" d="M132.2,15.7L132.2,15.7c-0.6-0.7-1.4-1.3-2.3-1.6c-0.9-0.3-2-0.7-3.5-1c-1.2-0.3-2.1-0.6-2.8-0.8
					c-0.1,0-0.1,0-0.2,0s-0.1,0.1-0.1,0.1c-0.1,0.6-0.3,1.2-0.6,1.7c0,0.1,0,0.1,0,0.2c0,0.1,0.1,0.1,0.1,0.1
					c0.8,0.3,1.7,0.5,2.8,0.8c1.2,0.3,2.2,0.6,2.8,0.8c0.6,0.2,1.2,0.6,1.7,1c0.4,0.4,0.6,1,0.6,1.7c0,0.9-0.4,1.7-1.2,2.3
					c-0.8,0.6-2.1,0.9-3.8,0.9c-1.2,0-2.4-0.2-3.5-0.6s-2-1-2.7-1.7c0,0-0.1-0.1-0.2-0.1s-0.1,0.1-0.2,0.1l-0.8,1.6
					c0,0.1,0,0.2,0,0.2c0.7,0.8,1.8,1.4,3.1,1.9c1.3,0.5,2.7,0.7,4.2,0.7c1.6,0,3-0.2,4.1-0.7c1.1-0.5,2-1.2,2.5-2s0.8-1.8,0.8-2.8
					C133.2,17.4,132.8,16.4,132.2,15.7z"/>
			</g>
			<g>
				
					<radialGradient id="SVGID_6_" cx="126.297" cy="19.469" r="81.1777" gradientTransform="matrix(1 0 0 -1 0 28)" gradientUnits="userSpaceOnUse">
					<stop  offset="0" style="stop-color:#5CFFE4"/>
					<stop  offset="7.944351e-02" style="stop-color:#5CFFE4;stop-opacity:0.9206"/>
					<stop  offset="1" style="stop-color:#5CFFE4;stop-opacity:0"/>
				</radialGradient>
				<path class="st8" d="M122.4,6.9L122.4,6.9c0.2,0.1,0.2,0.1,0.3,0.1c0.8-0.5,2-0.8,3.5-0.8c0.9,0,1.8,0.1,2.6,0.4
					c0.9,0.3,1.8,0.7,2.5,1.2h0.1c0,0,0,0,0.1,0s0.1-0.1,0.1-0.1l0.7-1.6c0-0.1,0-0.2-0.1-0.3c-0.8-0.5-1.7-1-2.8-1.3
					S127.2,4,126.1,4c-1.6,0-3,0.2-4.1,0.7c-0.3,0.1-0.5,0.3-0.8,0.4c-0.1,0-0.1,0.1-0.1,0.2s0,0.1,0.1,0.2
					C121.7,5.9,122,6.4,122.4,6.9z"/>
			</g>
		</g>
	</g>
</g>
</svg>
