<svg width="140" height="27" viewBox="0 0 140 27" fill="none" xmlns="http://www.w3.org/2000/svg">
<g clip-path="url(#clip0_1299_1080)">
<path d="M88.751 22.5406C87.1431 21.6551 85.8814 20.4275 84.9676 18.8579C84.0529 17.2891 83.596 15.5322 83.596 13.5873C83.596 11.6431 84.0529 9.88625 84.9676 8.31663C85.8822 6.74784 87.148 5.52028 88.7651 4.63393C90.3822 3.74842 92.1923 3.30566 94.1947 3.30566C95.6969 3.30566 97.0826 3.55617 98.3534 4.05635C99.6243 4.55737 100.702 5.28891 101.588 6.25099L100.231 7.60839C98.6522 6.01047 96.659 5.21151 94.2521 5.21151C92.6534 5.21151 91.2003 5.5777 89.8911 6.30925C88.5812 7.04163 87.5558 8.04199 86.8151 9.31283C86.0736 10.5837 85.7033 12.0085 85.7033 13.5873C85.7033 15.166 86.0736 16.5908 86.8151 17.8617C87.5558 19.1325 88.5812 20.1337 89.8911 20.8653C91.2003 21.5968 92.6534 21.963 94.2521 21.963C96.6781 21.963 98.6714 21.1541 100.231 19.537L101.588 20.8944C100.703 21.8573 99.6193 22.5938 98.3393 23.104C97.0585 23.6142 95.6678 23.8697 94.1656 23.8697C92.1632 23.8697 90.358 23.4269 88.751 22.5406Z" fill="black"/>
<path d="M119.784 5.32792C121.247 6.56048 121.978 8.25493 121.978 10.4113C121.978 12.5676 121.247 14.2571 119.784 15.4797C118.321 16.7023 116.298 17.314 113.718 17.314H108.289V23.6965H106.152V3.47949H113.718C116.298 3.47949 118.32 4.09536 119.784 5.32792ZM118.253 14.1223C119.311 13.2468 119.841 12.0092 119.841 10.4113C119.841 8.77509 119.311 7.51839 118.253 6.64204C117.193 5.76651 115.663 5.32792 113.66 5.32792H108.288V15.4364H113.66C115.663 15.4364 117.194 14.9986 118.253 14.1223Z" fill="black"/>
<path d="M128.145 23.1472C126.768 22.6662 125.704 22.0303 124.953 21.2413L125.79 19.5952C126.522 20.3275 127.494 20.9193 128.707 21.3712C129.92 21.8239 131.171 22.0503 132.461 22.0503C134.271 22.0503 135.628 21.7182 136.534 21.0541C137.438 20.39 137.891 19.5286 137.891 18.4691C137.891 17.6602 137.646 17.0152 137.154 16.5341C136.663 16.0531 136.062 15.6819 135.349 15.4223C134.637 15.1626 133.646 14.8788 132.375 14.57C130.854 14.1855 129.641 13.8144 128.735 13.4582C127.83 13.102 127.055 12.5585 126.41 11.8261C125.765 11.0946 125.443 10.1034 125.443 8.85167C125.443 7.83133 125.713 6.90254 126.252 6.06447C126.79 5.22723 127.619 4.5581 128.736 4.05708C129.852 3.5569 131.239 3.3064 132.895 3.3064C134.05 3.3064 135.181 3.46536 136.289 3.78327C137.396 4.10119 138.354 4.53896 139.163 5.09739L138.44 6.80101C137.593 6.24257 136.688 5.82395 135.726 5.54431C134.763 5.26551 133.82 5.12569 132.895 5.12569C131.123 5.12569 129.79 5.46775 128.895 6.15102C128 6.8343 127.552 7.71565 127.552 8.79341C127.552 9.60235 127.798 10.2515 128.289 10.7425C128.78 11.2336 129.395 11.6089 130.137 11.8686C130.878 12.1282 131.875 12.4129 133.126 12.7208C134.609 13.087 135.807 13.4482 136.722 13.8035C137.636 14.1597 138.411 14.699 139.047 15.4206C139.682 16.143 140 17.1201 140 18.3518C140 19.3729 139.725 20.3009 139.177 21.139C138.628 21.9762 137.785 22.6412 136.65 23.1322C135.514 23.6232 134.118 23.8687 132.462 23.8687C130.96 23.8696 129.52 23.6291 128.145 23.1472Z" fill="black"/>
<path d="M77.4324 3.41138L73.376 23.6916H69.5235L61.9617 11.0023L59.4117 23.6916H54.7761L58.8324 3.41138H62.7149L70.2759 16.1306L72.7968 3.41138H77.4324Z" fill="black"/>
<path d="M53.0209 0.0208131C54.4682 0.0424516 55.5934 1.22258 55.5776 2.69649C55.5601 4.15126 54.3916 5.27979 52.9161 5.26481C51.4555 5.25149 50.3236 4.09384 50.3311 2.62159C50.3419 1.1302 51.5137 -0.000825332 53.0209 0.0208131Z" fill="#1EB6BF"/>
<path d="M50.8604 6.76367C52.2069 8.5347 53.0059 10.7451 53.0059 13.1412C53.0059 18.9669 48.2829 23.6891 42.458 23.6891C40.0628 23.6891 37.8523 22.891 36.0813 21.5427L38.9326 18.6915C39.9521 19.3389 41.1613 19.7143 42.458 19.7143C46.0874 19.7143 49.0319 16.7723 49.0319 13.1412C49.0319 11.8437 48.6557 10.6345 48.0082 9.61579L50.8604 6.76367Z" fill="#1EB6BF"/>
<path d="M48.7232 4.65557L45.8627 7.51601C44.8698 6.9143 43.7039 6.56725 42.458 6.56725C38.8277 6.56725 35.8841 9.51174 35.8841 13.1412C35.8841 14.3862 36.2303 15.5522 36.8345 16.5451L33.9732 19.4063C32.6757 17.6553 31.9092 15.4865 31.9092 13.1412C31.9092 7.31627 36.6323 2.59326 42.458 2.59326C44.8041 2.59326 46.9713 3.35976 48.7232 4.65557Z" fill="#1EB6BF"/>
<path d="M31.9842 21.0169C33.4481 21.026 34.5874 22.1787 34.5825 23.6476C34.5775 25.1165 33.4323 26.2601 31.9659 26.2617C30.4778 26.2626 29.3251 25.0949 29.336 23.5985C29.3509 22.1404 30.5128 21.0086 31.9842 21.0169Z" fill="#1EB6BF"/>
<path d="M30.7299 6.24526L27.3402 9.02664C26.2583 7.44287 24.6271 6.65057 22.4449 6.65057C20.9569 6.65057 19.6436 6.99928 18.505 7.69337C17.3649 8.38913 16.481 9.33623 15.8543 10.533C15.226 11.7306 14.9122 13.063 14.9122 14.5303C14.9122 16.0958 15.4099 17.3366 16.4036 18.2538C17.399 19.1709 18.7938 19.6295 20.5898 19.6295C22.7345 19.6295 24.5297 18.8472 25.9786 17.2817L28.76 20.1213C26.751 22.4583 23.893 23.6268 20.1837 23.6268C18.1555 23.6268 16.3836 23.2598 14.8673 22.5265C13.3509 21.7917 12.1875 20.7588 11.3768 19.4264C10.5654 18.094 10.1601 16.5577 10.1601 14.8199C10.1601 12.5212 10.6861 10.4498 11.7397 8.60552C12.7917 6.76042 14.2739 5.30815 16.1864 4.24537C18.0989 3.18259 20.2902 2.65161 22.762 2.65161C24.5771 2.65161 26.1809 2.96038 27.5716 3.5779C28.9631 4.19959 30.0159 5.08677 30.7299 6.24526Z" fill="black"/>
<path d="M8.79854 3.41138L4.74299 23.6916H0.020813L4.07719 3.41138H8.79854Z" fill="black"/>
</g>
<defs>
<clipPath id="clip0_1299_1080">
<rect width="140" height="26.2824" fill="white"/>
</clipPath>
</defs>
</svg>
