<svg width="140" height="27" viewBox="0 0 140 27" fill="none" xmlns="http://www.w3.org/2000/svg">
<g clip-path="url(#clip0_1299_1081)">
<path d="M88.751 22.5406C87.1431 21.6551 85.8814 20.4275 84.9676 18.8579C84.0529 17.2891 83.596 15.5322 83.596 13.5873C83.596 11.6431 84.0529 9.88625 84.9676 8.31663C85.8822 6.74784 87.148 5.52028 88.7651 4.63393C90.3822 3.74842 92.1923 3.30566 94.1947 3.30566C95.6969 3.30566 97.0826 3.55617 98.3534 4.05635C99.6243 4.55737 100.702 5.28891 101.588 6.25099L100.231 7.60839C98.6522 6.01047 96.659 5.21151 94.2521 5.21151C92.6534 5.21151 91.2003 5.5777 89.8911 6.30925C88.5812 7.04163 87.5558 8.04199 86.8151 9.31283C86.0736 10.5837 85.7033 12.0085 85.7033 13.5873C85.7033 15.166 86.0736 16.5908 86.8151 17.8617C87.5558 19.1325 88.5812 20.1337 89.8911 20.8653C91.2003 21.5968 92.6534 21.963 94.2521 21.963C96.6781 21.963 98.6714 21.1541 100.231 19.537L101.588 20.8944C100.703 21.8573 99.6193 22.5938 98.3393 23.104C97.0585 23.6142 95.6678 23.8697 94.1656 23.8697C92.1632 23.8697 90.358 23.4269 88.751 22.5406Z" fill="white"/>
<path d="M119.784 5.32792C121.247 6.56048 121.978 8.25493 121.978 10.4113C121.978 12.5676 121.247 14.2571 119.784 15.4797C118.321 16.7023 116.298 17.314 113.718 17.314H108.289V23.6965H106.152V3.47949H113.718C116.298 3.47949 118.32 4.09536 119.784 5.32792ZM118.253 14.1223C119.311 13.2468 119.841 12.0092 119.841 10.4113C119.841 8.77509 119.311 7.51839 118.253 6.64204C117.193 5.76651 115.663 5.32792 113.66 5.32792H108.288V15.4364H113.66C115.663 15.4364 117.194 14.9986 118.253 14.1223Z" fill="white"/>
<path d="M128.145 23.1474C126.768 22.6664 125.704 22.0306 124.953 21.2416L125.79 19.5954C126.522 20.3278 127.494 20.9195 128.707 21.3714C129.92 21.8242 131.171 22.0505 132.461 22.0505C134.271 22.0505 135.628 21.7185 136.534 21.0543C137.438 20.3902 137.891 19.5288 137.891 18.4694C137.891 17.6604 137.646 17.0154 137.154 16.5344C136.663 16.0534 136.062 15.6822 135.349 15.4225C134.637 15.1628 133.646 14.8791 132.375 14.5703C130.854 14.1858 129.641 13.8146 128.735 13.4584C127.83 13.1022 127.055 12.5587 126.41 11.8264C125.765 11.0948 125.443 10.1036 125.443 8.85191C125.443 7.83157 125.713 6.90278 126.252 6.06471C126.79 5.22747 127.619 4.55834 128.736 4.05733C129.852 3.55715 131.239 3.30664 132.895 3.30664C134.05 3.30664 135.181 3.4656 136.289 3.78352C137.396 4.10144 138.354 4.5392 139.163 5.09764L138.44 6.80125C137.593 6.24281 136.688 5.82419 135.726 5.54456C134.763 5.26575 133.82 5.12594 132.895 5.12594C131.123 5.12594 129.79 5.46799 128.895 6.15126C128 6.83454 127.552 7.71589 127.552 8.79365C127.552 9.6026 127.798 10.2518 128.289 10.7428C128.78 11.2338 129.395 11.6091 130.137 11.8688C130.878 12.1285 131.875 12.4131 133.126 12.721C134.609 13.0872 135.807 13.4484 136.722 13.8038C137.636 14.16 138.411 14.6993 139.047 15.4208C139.682 16.1432 140 17.1203 140 18.352C140 19.3732 139.725 20.3011 139.177 21.1392C138.628 21.9765 137.785 22.6414 136.65 23.1325C135.514 23.6235 134.118 23.869 132.462 23.869C130.96 23.8698 129.52 23.6293 128.145 23.1474Z" fill="white"/>
<path d="M77.4324 3.41113L73.376 23.6914H69.5235L61.9617 11.0021L59.4117 23.6914H54.7761L58.8324 3.41113H62.7149L70.2759 16.1304L72.7968 3.41113H77.4324Z" fill="white"/>
<path d="M53.0209 0.0208131C54.4682 0.0424516 55.5934 1.22258 55.5776 2.69649C55.5601 4.15126 54.3916 5.27979 52.9161 5.26481C51.4555 5.25149 50.3236 4.09384 50.3311 2.62159C50.3419 1.1302 51.5137 -0.000825332 53.0209 0.0208131Z" fill="#1EB6BF"/>
<path d="M50.8604 6.76367C52.2069 8.5347 53.0059 10.7451 53.0059 13.1412C53.0059 18.9669 48.2829 23.6891 42.458 23.6891C40.0628 23.6891 37.8523 22.891 36.0813 21.5427L38.9326 18.6915C39.9521 19.3389 41.1613 19.7143 42.458 19.7143C46.0874 19.7143 49.0319 16.7723 49.0319 13.1412C49.0319 11.8437 48.6557 10.6345 48.0082 9.61579L50.8604 6.76367Z" fill="#1EB6BF"/>
<path d="M48.7232 4.65606L45.8627 7.5165C44.8698 6.91478 43.7039 6.56774 42.458 6.56774C38.8277 6.56774 35.8841 9.51223 35.8841 13.1417C35.8841 14.3867 36.2303 15.5527 36.8345 16.5456L33.9732 19.4068C32.6757 17.6558 31.9092 15.4869 31.9092 13.1417C31.9092 7.31676 36.6323 2.59375 42.458 2.59375C44.8041 2.59375 46.9713 3.36025 48.7232 4.65606Z" fill="#1EB6BF"/>
<path d="M31.9842 21.0166C33.4481 21.0258 34.5874 22.1785 34.5825 23.6474C34.5775 25.1163 33.4323 26.2598 31.9659 26.2615C30.4778 26.2623 29.3251 25.0947 29.336 23.5983C29.3509 22.1402 30.5128 21.0083 31.9842 21.0166Z" fill="#1EB6BF"/>
<path d="M30.7299 6.24502L27.3402 9.02639C26.2583 7.44262 24.6271 6.65032 22.4449 6.65032C20.9569 6.65032 19.6436 6.99903 18.505 7.69313C17.3649 8.38889 16.481 9.33599 15.8543 10.5328C15.226 11.7304 14.9122 13.0628 14.9122 14.5301C14.9122 16.0955 15.4099 17.3364 16.4036 18.2535C17.399 19.1707 18.7938 19.6292 20.5898 19.6292C22.7345 19.6292 24.5297 18.8469 25.9786 17.2815L28.76 20.1211C26.751 22.4581 23.893 23.6265 20.1837 23.6265C18.1555 23.6265 16.3836 23.2595 14.8673 22.5263C13.3509 21.7914 12.1875 20.7586 11.3768 19.4262C10.5654 18.0937 10.1601 16.5574 10.1601 14.8197C10.1601 12.521 10.6861 10.4495 11.7397 8.60527C12.7917 6.76018 14.2739 5.3079 16.1864 4.24512C18.0989 3.18234 20.2902 2.65137 22.762 2.65137C24.5771 2.65137 26.1809 2.96013 27.5716 3.57766C28.9631 4.19935 30.0159 5.08653 30.7299 6.24502Z" fill="white"/>
<path d="M8.79854 3.41113L4.74299 23.6914H0.020813L4.07719 3.41113H8.79854Z" fill="white"/>
</g>
<defs>
<clipPath id="clip0_1299_1081">
<rect width="140" height="26.2824" fill="white"/>
</clipPath>
</defs>
</svg>
