<svg xmlns="http://www.w3.org/2000/svg" xmlns:xlink="http://www.w3.org/1999/xlink" width="1080" zoomAndPan="magnify" viewBox="0 0 810 809.999993" height="1080" preserveAspectRatio="xMidYMid meet" version="1.0"><defs><clipPath id="b0e46abd7d"><path d="M 397 327 L 794.964844 327 L 794.964844 715.28125 L 397 715.28125 Z M 397 327 " clip-rule="nonzero"/></clipPath><clipPath id="e15ca272a7"><path d="M 15.035156 94.003906 L 777 94.003906 L 777 531 L 15.035156 531 Z M 15.035156 94.003906 " clip-rule="nonzero"/></clipPath></defs><g clip-path="url(#b0e46abd7d)"><path fill="#238c99" d="M 499.972656 521.992188 C 499.972656 468.699219 543.195312 425.496094 596.492188 425.496094 C 649.765625 425.496094 692.988281 468.699219 692.988281 521.992188 C 692.988281 575.285156 649.765625 618.488281 596.492188 618.488281 C 543.195312 618.488281 499.972656 575.285156 499.972656 521.992188 Z M 780.640625 510.84375 L 743.871094 507.816406 C 742.683594 495.1875 739.914062 483 735.726562 471.492188 L 767.585938 453.019531 C 775.839844 448.238281 777.910156 437.257812 771.988281 429.8125 L 725.90625 371.84375 C 719.984375 364.394531 708.835938 363.929688 702.316406 370.867188 L 677.078125 397.78125 C 666.730469 391.050781 655.496094 385.59375 643.585938 381.59375 L 648.9375 345.097656 C 650.3125 335.683594 643.015625 327.242188 633.496094 327.242188 L 559.464844 327.242188 C 549.945312 327.242188 542.648438 335.683594 544.023438 345.097656 L 549.375 381.59375 C 538.035156 385.402344 527.308594 390.542969 517.363281 396.828125 L 492.460938 369.621094 C 486.03125 362.597656 474.859375 362.933594 468.851562 370.296875 L 422.09375 427.71875 C 416.085938 435.101562 418.03125 446.101562 426.199219 450.96875 L 457.871094 469.839844 C 453.554688 481.308594 450.613281 493.453125 449.261719 506.0625 L 412.46875 508.644531 C 402.96875 509.296875 396.28125 518.246094 398.335938 527.535156 L 414.179688 599.871094 C 416.234375 609.160156 426.050781 614.46875 434.9375 611.105469 L 469.421875 598.074219 C 475.855469 608.777344 483.597656 618.59375 492.421875 627.332031 L 471.539062 657.757812 C 466.164062 665.585938 469 676.394531 477.546875 680.585938 L 544.023438 713.167969 C 552.570312 717.355469 562.851562 712.976562 565.75 703.898438 L 577.003906 668.757812 C 583.375 669.605469 589.867188 670.070312 596.492188 670.070312 C 602.476562 670.070312 608.382812 669.667969 614.199219 668.992188 L 625.03125 704.261719 C 627.824219 713.355469 638.042969 717.863281 646.632812 713.78125 L 713.511719 681.980469 C 722.121094 677.898438 725.082031 667.128906 719.773438 659.214844 L 699.269531 628.539062 C 708.199219 619.929688 716.070312 610.21875 722.628906 599.574219 L 756.945312 613.03125 C 765.808594 616.523438 775.691406 611.316406 777.828125 602.03125 L 794.5625 529.90625 C 796.699219 520.636719 790.121094 511.625 780.640625 510.84375 " fill-opacity="1" fill-rule="nonzero"/></g><g clip-path="url(#e15ca272a7)"><path fill="#238c99" d="M 366.789062 530.878906 L 166.921875 530.878906 C 81.488281 521.398438 15.035156 449.023438 15.035156 361.007812 C 15.035156 349.519531 16.175781 338.371094 18.335938 327.558594 C 33.886719 249.214844 103.046875 190.144531 185.984375 190.144531 C 204.285156 190.144531 221.863281 193.042969 238.429688 198.398438 C 238.558594 198.398438 238.683594 198.460938 238.832031 198.523438 C 262.761719 142.691406 315.546875 102.195312 378.46875 95.785156 C 384.097656 95.171875 389.765625 94.898438 395.5 94.898438 C 401.382812 94.898438 407.261719 95.171875 412.953125 95.785156 C 475.875 102.195312 528.726562 142.691406 552.652344 198.523438 C 552.800781 198.398438 552.867188 198.398438 552.992188 198.398438 C 569.558594 193.042969 587.140625 190.144531 605.460938 190.144531 C 686.832031 190.144531 754.957031 246.996094 772.136719 323.160156 C 774.90625 335.324219 776.386719 347.976562 776.386719 361.007812 C 776.386719 368.351562 775.902344 375.542969 774.992188 382.632812 L 750.746094 352.101562 C 741.710938 340.761719 728.214844 334.246094 713.699219 334.246094 C 701.324219 334.246094 689.371094 339.15625 680.546875 347.785156 C 681.921875 334.816406 677.882812 321.828125 669.3125 311.902344 C 660.300781 301.496094 647.269531 295.527344 633.496094 295.527344 L 559.464844 295.527344 C 545.691406 295.527344 532.660156 301.496094 523.667969 311.902344 C 515.796875 321.023438 511.734375 332.722656 512.179688 344.613281 C 503.589844 337.082031 492.460938 332.851562 480.953125 332.851562 C 466.671875 332.851562 453.28125 339.195312 444.265625 350.28125 L 397.511719 407.703125 C 388.8125 418.367188 385.21875 432.246094 387.609375 445.804688 C 389.894531 458.710938 397.382812 470.050781 408.320312 477.183594 C 395.351562 478.621094 383.546875 485.347656 375.675781 495.84375 C 368.144531 505.933594 365.011719 518.523438 366.789062 530.878906 " fill-opacity="1" fill-rule="nonzero"/></g></svg>