<svg width="209" height="35" viewBox="0 0 209 35" fill="none" xmlns="http://www.w3.org/2000/svg">
<path d="M0.574417 0H35.5744V17.5C35.5744 27.165 27.7394 35 18.0744 35C8.40943 35 0.574417 27.165 0.574417 17.5V0Z" fill="#740C1C"/>
<g filter="url(#filter0_i)">
<path d="M2.80833 -1.52588e-05H37.8083V17.5C37.8083 27.165 29.9733 35 20.3083 35C10.6434 35 2.80833 27.165 2.80833 17.5V-1.52588e-05Z" fill="#FAFAFA"/>
</g>
<g filter="url(#filter1_di)">
<path d="M34.1782 8.19032H33.9575C33.2769 8.19032 32.6791 8.43865 32.164 8.93529C31.8697 9.19281 31.6582 9.5147 31.5294 9.90098L26.9493 24.4967C26.5814 25.6556 26.3791 26.6765 26.3423 27.5594H26.094L20.4654 11.7772L16.2715 24.4967C15.922 25.6372 15.7289 26.6581 15.6921 27.5594H15.4438L9.18054 9.87339C8.95981 9.32157 8.61952 8.9077 8.15967 8.63179C7.69981 8.33748 7.23076 8.19032 6.75251 8.19032H6.53178V7.91441H12.657V8.19032H12.4087C12.0224 8.19032 11.7281 8.31908 11.5258 8.5766C11.3419 8.81573 11.2499 9.04565 11.2499 9.26638C11.2499 9.48711 11.2775 9.68945 11.3327 9.87339L15.5265 23.3103L20.6585 7.47295L20.9068 7.50054L26.3423 22.7585L30.0395 9.8458C30.0947 9.64346 30.1223 9.44113 30.1223 9.23879C30.1223 9.01806 30.0303 8.78814 29.8464 8.54901C29.6624 8.30989 29.3773 8.19032 28.9911 8.19032H28.7427V7.91441H34.1782V8.19032Z" fill="#740C1C"/>
</g>
<path d="M85.4551 4.936H85.1671C84.2791 4.936 83.4991 5.26 82.8271 5.908C82.4431 6.244 82.1671 6.664 81.9991 7.168L76.0231 26.212C75.5431 27.724 75.2791 29.056 75.2311 30.208H74.9071L67.5631 9.616L62.0911 26.212C61.6351 27.7 61.3831 29.032 61.3351 30.208H61.0111L52.8391 7.132C52.5511 6.412 52.1071 5.872 51.5071 5.512C50.9071 5.128 50.2951 4.936 49.6711 4.936H49.3831V4.576H57.3751V4.936H57.0511C56.5471 4.936 56.1631 5.104 55.8991 5.44C55.6591 5.752 55.5391 6.052 55.5391 6.34C55.5391 6.628 55.5751 6.892 55.6471 7.132L61.1191 24.664L67.8151 4L68.1391 4.036L75.2311 23.944L80.0551 7.096C80.1271 6.832 80.1631 6.568 80.1631 6.304C80.1631 6.016 80.0431 5.716 79.8031 5.404C79.5631 5.092 79.1911 4.936 78.6871 4.936H78.3631V4.576H85.4551V4.936Z" fill="#FAF9FA"/>
<path d="M86.4684 29.416C87.1164 29.416 87.6804 29.224 88.1604 28.84C88.6404 28.456 88.8804 28 88.8804 27.472V10.48C88.8804 9.952 88.6404 9.496 88.1604 9.112C87.6804 8.728 87.1044 8.536 86.4324 8.536H85.9644V8.176H94.1004V8.536H93.6324C92.9844 8.536 92.4204 8.716 91.9404 9.076C91.4844 9.436 91.2324 9.88 91.1844 10.408V27.508C91.2084 28.036 91.4604 28.492 91.9404 28.876C92.4204 29.236 92.9844 29.416 93.6324 29.416H94.1004L94.1364 29.776H85.9644V29.416H86.4684Z" fill="#FAF9FA"/>
<path d="M122.25 8.536C121.722 8.536 121.266 8.716 120.882 9.076C120.498 9.412 120.294 9.832 120.27 10.336V25.672C120.27 27.064 120.354 28.384 120.522 29.632L120.594 30.28H120.27L101.55 12.532V27.544C101.55 28.072 101.742 28.516 102.126 28.876C102.51 29.236 102.978 29.416 103.53 29.416H104.142V29.776H97.3382V29.416H97.9501C98.5022 29.416 98.9701 29.236 99.3541 28.876C99.7381 28.516 99.9301 28.072 99.9301 27.544V12.136C99.9301 10.672 99.8461 9.364 99.6782 8.212L99.6062 7.636L100.002 7.672L118.686 25.276V10.336C118.638 9.832 118.422 9.412 118.038 9.076C117.654 8.716 117.198 8.536 116.67 8.536H116.058V8.176H122.862V8.536H122.25Z" fill="#FAF9FA"/>
<path d="M126.617 29.416C127.265 29.416 127.829 29.224 128.309 28.84C128.789 28.456 129.029 28 129.029 27.472V10.48C129.029 9.952 128.789 9.496 128.309 9.112C127.829 8.728 127.253 8.536 126.581 8.536H126.113V8.176H134.249V8.536H133.781C133.133 8.536 132.569 8.716 132.089 9.076C131.633 9.436 131.381 9.88 131.333 10.408V27.508C131.357 28.036 131.609 28.492 132.089 28.876C132.569 29.236 133.133 29.416 133.781 29.416H134.249L134.285 29.776H126.113V29.416H126.617Z" fill="#FAF9FA"/>
<path d="M152.499 11.164C152.859 11.86 153.039 12.7 153.039 13.684C153.039 14.668 152.643 15.58 151.851 16.42C151.059 17.236 150.135 17.776 149.079 18.04C150.831 18.232 152.271 18.868 153.399 19.948C154.551 21.028 155.127 22.216 155.127 23.512C155.127 24.784 154.875 25.828 154.371 26.644C153.891 27.46 153.243 28.084 152.427 28.516C150.867 29.356 149.103 29.776 147.135 29.776H138.207V29.416H138.639C139.239 29.416 139.743 29.236 140.151 28.876C140.559 28.492 140.775 28.024 140.799 27.472V10.48C140.775 9.688 140.415 9.124 139.719 8.788C139.407 8.62 139.047 8.536 138.639 8.536H138.207V8.176H145.551C149.127 8.176 151.443 9.172 152.499 11.164ZM152.571 23.728C152.571 20.152 149.775 18.364 144.183 18.364V18.004C148.407 18.004 150.519 16.528 150.519 13.576C150.519 10.696 148.851 9.256 145.515 9.256H143.067V28.696H147.099C148.731 28.696 150.051 28.288 151.059 27.472C152.067 26.632 152.571 25.384 152.571 23.728Z" fill="#FAF9FA"/>
<path d="M159.242 29.416C159.818 29.416 160.298 29.236 160.682 28.876C161.09 28.492 161.306 28.036 161.33 27.508V10.48C161.306 9.952 161.078 9.496 160.646 9.112C160.238 8.728 159.746 8.536 159.17 8.536H158.738V8.176H166.19V8.536H165.758C165.182 8.536 164.678 8.728 164.246 9.112C163.838 9.496 163.634 9.952 163.634 10.48V28.66H169.25C170.354 28.66 171.29 28.468 172.058 28.084C172.826 27.7 173.402 27.244 173.786 26.716C174.194 26.188 174.59 25.492 174.974 24.628H175.334L173.354 29.776H158.738V29.416H159.242Z" fill="#FAF9FA"/>
<path d="M177.664 29.416C178.24 29.416 178.72 29.236 179.104 28.876C179.512 28.492 179.728 28.036 179.752 27.508V10.408C179.752 9.88 179.548 9.436 179.14 9.076C178.732 8.716 178.24 8.536 177.664 8.536H177.16V8.176H187.672C188.656 8.176 189.52 8.104 190.264 7.96C191.008 7.816 191.488 7.696 191.704 7.6V11.704L191.308 11.668V11.128C191.308 10.624 191.14 10.192 190.804 9.832C190.468 9.472 190.036 9.292 189.508 9.292H182.02V18.436H188.176C188.656 18.436 189.016 18.292 189.256 18.004C189.52 17.716 189.652 17.356 189.652 16.924V16.456H190.048V21.496H189.652V21.028C189.652 20.356 189.4 19.9 188.896 19.66C188.704 19.588 188.5 19.54 188.284 19.516H182.02V28.66H187.672C188.776 28.66 189.7 28.468 190.444 28.084C191.212 27.7 191.788 27.244 192.172 26.716C192.58 26.188 192.988 25.492 193.396 24.628H193.756L191.776 29.776H177.16V29.416H177.664Z" fill="#FAF9FA"/>
<defs>
<filter id="filter0_i" x="2.80833" y="-1.52588e-05" width="35" height="35" filterUnits="userSpaceOnUse" color-interpolation-filters="sRGB">
<feFlood flood-opacity="0" result="BackgroundImageFix"/>
<feBlend mode="normal" in="SourceGraphic" in2="BackgroundImageFix" result="shape"/>
<feColorMatrix in="SourceAlpha" type="matrix" values="0 0 0 0 0 0 0 0 0 0 0 0 0 0 0 0 0 0 127 0" result="hardAlpha"/>
<feOffset/>
<feGaussianBlur stdDeviation="0.510949"/>
<feComposite in2="hardAlpha" operator="arithmetic" k2="-1" k3="1"/>
<feColorMatrix type="matrix" values="0 0 0 0 0 0 0 0 0 0 0 0 0 0 0 0 0 0 0.25 0"/>
<feBlend mode="normal" in2="shape" result="effect1_innerShadow"/>
</filter>
<filter id="filter1_di" x="5.50989" y="6.45106" width="29.6902" height="22.1302" filterUnits="userSpaceOnUse" color-interpolation-filters="sRGB">
<feFlood flood-opacity="0" result="BackgroundImageFix"/>
<feColorMatrix in="SourceAlpha" type="matrix" values="0 0 0 0 0 0 0 0 0 0 0 0 0 0 0 0 0 0 127 0"/>
<feOffset/>
<feGaussianBlur stdDeviation="0.510949"/>
<feColorMatrix type="matrix" values="0 0 0 0 0 0 0 0 0 0 0 0 0 0 0 0 0 0 0.25 0"/>
<feBlend mode="normal" in2="BackgroundImageFix" result="effect1_dropShadow"/>
<feBlend mode="normal" in="SourceGraphic" in2="effect1_dropShadow" result="shape"/>
<feColorMatrix in="SourceAlpha" type="matrix" values="0 0 0 0 0 0 0 0 0 0 0 0 0 0 0 0 0 0 127 0" result="hardAlpha"/>
<feOffset dy="1.0219"/>
<feGaussianBlur stdDeviation="0.510949"/>
<feComposite in2="hardAlpha" operator="arithmetic" k2="-1" k3="1"/>
<feColorMatrix type="matrix" values="0 0 0 0 0 0 0 0 0 0 0 0 0 0 0 0 0 0 0.25 0"/>
<feBlend mode="normal" in2="shape" result="effect2_innerShadow"/>
</filter>
</defs>
</svg>
